<svg width="294" height="25" viewBox="0 0 294 25" fill="none" xmlns="http://www.w3.org/2000/svg">
<path d="M0.928 15.616C0.928 13.9947 1.248 12.5333 1.888 11.232C2.528 9.90933 3.41333 8.864 4.544 8.096C5.67467 7.328 6.96533 6.944 8.416 6.944C9.65333 6.944 10.7627 7.25333 11.744 7.872C12.7467 8.46933 13.5253 9.23733 14.08 10.176V0.639999H18.368V19.2C18.368 19.648 18.4427 19.968 18.592 20.16C18.7413 20.352 18.9973 20.4693 19.36 20.512V24C18.6133 24.1493 18.0053 24.224 17.536 24.224C16.768 24.224 16.128 24.032 15.616 23.648C15.1253 23.264 14.848 22.7627 14.784 22.144L14.72 21.088C14.1013 22.1333 13.2587 22.9333 12.192 23.488C11.1467 24.0427 10.048 24.32 8.896 24.32C7.744 24.32 6.67733 24.096 5.696 23.648C4.736 23.2 3.89333 22.5813 3.168 21.792C2.464 21.0027 1.90933 20.0853 1.504 19.04C1.12 17.9733 0.928 16.832 0.928 15.616ZM14.08 17.856V13.856C13.8667 13.2373 13.5253 12.6827 13.056 12.192C12.5867 11.7013 12.064 11.3173 11.488 11.04C10.912 10.7413 10.336 10.592 9.76 10.592C9.09867 10.592 8.50133 10.7307 7.968 11.008C7.43467 11.2853 6.96533 11.6587 6.56 12.128C6.176 12.5973 5.87733 13.1413 5.664 13.76C5.472 14.3787 5.376 15.0293 5.376 15.712C5.376 16.3947 5.48267 17.0453 5.696 17.664C5.93067 18.2613 6.26133 18.784 6.688 19.232C7.11467 19.68 7.60533 20.032 8.16 20.288C8.736 20.544 9.35467 20.672 10.016 20.672C10.4213 20.672 10.8267 20.608 11.232 20.48C11.6587 20.3307 12.0533 20.1387 12.416 19.904C12.8 19.648 13.1307 19.3493 13.408 19.008C13.7067 18.6453 13.9307 18.2613 14.08 17.856ZM22.577 24V7.232H26.865V24H22.577ZM22.577 4.896V0.639999H26.865V4.896H22.577ZM40.7173 10.944C39.4159 10.944 38.2533 11.2 37.2292 11.712C36.2053 12.2027 35.4693 12.9173 35.0213 13.856V24H30.7333V7.232H34.6693V10.816C35.2666 9.664 36.0239 8.75733 36.9413 8.096C37.8586 7.43467 38.8293 7.072 39.8533 7.008C40.0879 7.008 40.2693 7.008 40.3973 7.008C40.5253 7.008 40.6319 7.01867 40.7173 7.04V10.944ZM54.5643 24L49.6683 16.768L47.3963 19.008V24H43.1083V0.639999H47.3963V14.784L54.1483 7.264H58.6923L52.4523 14.368L59.1403 24H54.5643ZM73.6413 24L66.8893 7.328H69.1613L74.8573 21.824L80.5853 7.328H82.7292L75.9773 24H73.6413ZM83.9935 19.2C83.9935 18.1547 84.2922 17.2587 84.8895 16.512C85.4868 15.744 86.3082 15.1573 87.3535 14.752C88.4202 14.3253 89.6468 14.112 91.0335 14.112C91.8442 14.112 92.6868 14.176 93.5615 14.304C94.4362 14.432 95.2148 14.624 95.8975 14.88V13.472C95.8975 12.064 95.4815 10.944 94.6495 10.112C93.8175 9.28 92.6655 8.864 91.1935 8.864C90.2975 8.864 89.4122 9.03467 88.5375 9.376C87.6842 9.696 86.7882 10.176 85.8495 10.816L85.0175 9.28C86.1055 8.53333 87.1722 7.97867 88.2175 7.616C89.2628 7.232 90.3295 7.04 91.4175 7.04C93.4655 7.04 95.0868 7.62667 96.2815 8.8C97.4762 9.97333 98.0735 11.5947 98.0735 13.664V21.376C98.0735 21.6747 98.1375 21.8987 98.2655 22.048C98.3935 22.176 98.5962 22.2507 98.8735 22.272V24C98.6388 24.0213 98.4362 24.0427 98.2655 24.064C98.0948 24.0853 97.9668 24.0853 97.8815 24.064C97.3482 24.0427 96.9428 23.872 96.6655 23.552C96.3882 23.232 96.2388 22.8907 96.2175 22.528L96.1855 21.312C95.4388 22.272 94.4682 23.0187 93.2735 23.552C92.0788 24.064 90.8628 24.32 89.6255 24.32C88.5588 24.32 87.5882 24.096 86.7135 23.648C85.8602 23.1787 85.1882 22.56 84.6975 21.792C84.2282 21.0027 83.9935 20.1387 83.9935 19.2ZM95.1615 20.48C95.3962 20.1813 95.5775 19.8933 95.7055 19.616C95.8335 19.3387 95.8975 19.0933 95.8975 18.88V16.448C95.1722 16.1707 94.4148 15.9573 93.6255 15.808C92.8575 15.6587 92.0788 15.584 91.2895 15.584C89.7322 15.584 88.4735 15.8933 87.5135 16.512C86.5535 17.1307 86.0735 17.9733 86.0735 19.04C86.0735 19.6587 86.2335 20.2453 86.5535 20.8C86.8735 21.3333 87.3428 21.7813 87.9615 22.144C88.5802 22.4853 89.3055 22.656 90.1375 22.656C91.1828 22.656 92.1535 22.4533 93.0495 22.048C93.9668 21.6427 94.6708 21.12 95.1615 20.48ZM116.791 24H114.615V14.688C114.615 12.7253 114.327 11.296 113.751 10.4C113.175 9.48267 112.268 9.024 111.031 9.024C110.178 9.024 109.335 9.23733 108.503 9.664C107.671 10.0693 106.935 10.6347 106.295 11.36C105.676 12.064 105.228 12.8747 104.951 13.792V24H102.775V7.328H104.759V11.104C105.207 10.2933 105.794 9.58933 106.519 8.992C107.244 8.37333 108.066 7.89333 108.983 7.552C109.9 7.21067 110.85 7.04 111.831 7.04C112.748 7.04 113.527 7.21067 114.167 7.552C114.807 7.89333 115.319 8.384 115.703 9.024C116.087 9.64267 116.364 10.4 116.535 11.296C116.706 12.1707 116.791 13.152 116.791 14.24V24ZM137.908 9.248C136.457 9.29067 135.177 9.696 134.068 10.464C132.98 11.232 132.212 12.288 131.764 13.632V24H129.588V7.328H131.636V11.328C132.212 10.1547 132.969 9.20533 133.908 8.48C134.868 7.75467 135.881 7.34933 136.948 7.264C137.161 7.24267 137.342 7.232 137.492 7.232C137.662 7.232 137.801 7.24267 137.908 7.264V9.248ZM147.379 24.32C146.184 24.32 145.075 24.096 144.051 23.648C143.048 23.1787 142.174 22.5493 141.427 21.76C140.702 20.9493 140.136 20.032 139.731 19.008C139.326 17.9627 139.123 16.864 139.123 15.712C139.123 14.5173 139.326 13.408 139.731 12.384C140.136 11.3387 140.712 10.4213 141.459 9.632C142.206 8.82133 143.08 8.192 144.083 7.744C145.107 7.27467 146.216 7.04 147.411 7.04C148.606 7.04 149.704 7.27467 150.707 7.744C151.71 8.192 152.584 8.82133 153.331 9.632C154.078 10.4213 154.654 11.3387 155.059 12.384C155.464 13.408 155.667 14.5173 155.667 15.712C155.667 16.864 155.464 17.9627 155.059 19.008C154.654 20.032 154.078 20.9493 153.331 21.76C152.606 22.5493 151.731 23.1787 150.707 23.648C149.704 24.096 148.595 24.32 147.379 24.32ZM141.331 15.744C141.331 16.9813 141.598 18.112 142.131 19.136C142.686 20.1387 143.422 20.9387 144.339 21.536C145.256 22.112 146.27 22.4 147.379 22.4C148.488 22.4 149.502 22.1013 150.419 21.504C151.336 20.9067 152.072 20.096 152.627 19.072C153.182 18.0267 153.459 16.896 153.459 15.68C153.459 14.4427 153.182 13.312 152.627 12.288C152.072 11.264 151.336 10.4533 150.419 9.856C149.502 9.25867 148.488 8.96 147.379 8.96C146.27 8.96 145.256 9.26933 144.339 9.888C143.443 10.5067 142.718 11.328 142.163 12.352C141.608 13.3547 141.331 14.4853 141.331 15.744ZM166.41 24.32C165.216 24.32 164.106 24.096 163.082 23.648C162.08 23.1787 161.205 22.5493 160.458 21.76C159.733 20.9493 159.168 20.032 158.762 19.008C158.357 17.9627 158.154 16.864 158.154 15.712C158.154 14.5173 158.357 13.408 158.762 12.384C159.168 11.3387 159.744 10.4213 160.49 9.632C161.237 8.82133 162.112 8.192 163.114 7.744C164.138 7.27467 165.248 7.04 166.442 7.04C167.637 7.04 168.736 7.27467 169.738 7.744C170.741 8.192 171.616 8.82133 172.362 9.632C173.109 10.4213 173.685 11.3387 174.09 12.384C174.496 13.408 174.698 14.5173 174.698 15.712C174.698 16.864 174.496 17.9627 174.09 19.008C173.685 20.032 173.109 20.9493 172.362 21.76C171.637 22.5493 170.762 23.1787 169.738 23.648C168.736 24.096 167.626 24.32 166.41 24.32ZM160.362 15.744C160.362 16.9813 160.629 18.112 161.162 19.136C161.717 20.1387 162.453 20.9387 163.37 21.536C164.288 22.112 165.301 22.4 166.41 22.4C167.52 22.4 168.533 22.1013 169.45 21.504C170.368 20.9067 171.104 20.096 171.658 19.072C172.213 18.0267 172.49 16.896 172.49 15.68C172.49 14.4427 172.213 13.312 171.658 12.288C171.104 11.264 170.368 10.4533 169.45 9.856C168.533 9.25867 167.52 8.96 166.41 8.96C165.301 8.96 164.288 9.26933 163.37 9.888C162.474 10.5067 161.749 11.328 161.194 12.352C160.64 13.3547 160.362 14.4853 160.362 15.744ZM183.81 24.32C182.444 24.32 181.175 24.096 180.002 23.648C178.828 23.2 177.815 22.5173 176.962 21.6L177.858 20.064C178.796 20.9387 179.735 21.5787 180.674 21.984C181.634 22.368 182.647 22.56 183.714 22.56C185.015 22.56 186.071 22.304 186.882 21.792C187.692 21.2587 188.098 20.5013 188.098 19.52C188.098 18.8587 187.895 18.3573 187.49 18.016C187.106 17.6533 186.54 17.3653 185.794 17.152C185.068 16.9173 184.194 16.672 183.17 16.416C182.018 16.096 181.047 15.7653 180.258 15.424C179.49 15.0613 178.903 14.6133 178.498 14.08C178.114 13.5253 177.922 12.8107 177.922 11.936C177.922 10.848 178.188 9.952 178.722 9.248C179.276 8.52267 180.023 7.97867 180.962 7.616C181.922 7.232 182.988 7.04 184.161 7.04C185.442 7.04 186.572 7.24267 187.554 7.648C188.535 8.05333 189.335 8.61867 189.954 9.344L188.898 10.816C188.3 10.1333 187.586 9.632 186.754 9.312C185.943 8.97067 185.036 8.8 184.034 8.8C183.351 8.8 182.7 8.896 182.082 9.088C181.463 9.25867 180.951 9.55733 180.546 9.984C180.162 10.3893 179.97 10.9547 179.97 11.68C179.97 12.2773 180.119 12.7467 180.418 13.088C180.716 13.408 181.164 13.6853 181.762 13.92C182.359 14.1333 183.095 14.368 183.97 14.624C185.228 14.9653 186.327 15.3173 187.266 15.68C188.204 16.0213 188.93 16.4693 189.442 17.024C189.954 17.5787 190.21 18.3573 190.21 19.36C190.21 20.9173 189.623 22.1333 188.45 23.008C187.276 23.8827 185.73 24.32 183.81 24.32ZM218.606 24H216.43V14.688C216.43 12.7467 216.121 11.3173 215.502 10.4C214.884 9.48267 213.966 9.024 212.75 9.024C211.492 9.024 210.361 9.472 209.358 10.368C208.377 11.264 207.684 12.416 207.278 13.824V24H205.102V14.688C205.102 12.7253 204.804 11.296 204.206 10.4C203.609 9.48267 202.692 9.024 201.454 9.024C200.217 9.024 199.097 9.46133 198.094 10.336C197.092 11.2107 196.388 12.3627 195.982 13.792V24H193.806V7.328H195.79V11.104C196.494 9.80267 197.39 8.8 198.478 8.096C199.588 7.392 200.814 7.04 202.158 7.04C203.545 7.04 204.665 7.43467 205.518 8.224C206.372 9.01333 206.894 10.048 207.086 11.328C207.854 9.92 208.772 8.85333 209.838 8.128C210.926 7.40267 212.153 7.04 213.518 7.04C214.457 7.04 215.246 7.21067 215.886 7.552C216.548 7.89333 217.07 8.384 217.454 9.024C217.86 9.64267 218.148 10.4 218.318 11.296C218.51 12.1707 218.606 13.152 218.606 14.24V24ZM221.868 19.2C221.868 18.1547 222.167 17.2587 222.765 16.512C223.362 15.744 224.183 15.1573 225.229 14.752C226.295 14.3253 227.522 14.112 228.909 14.112C229.719 14.112 230.562 14.176 231.437 14.304C232.311 14.432 233.09 14.624 233.773 14.88V13.472C233.773 12.064 233.357 10.944 232.525 10.112C231.693 9.28 230.541 8.864 229.069 8.864C228.173 8.864 227.287 9.03467 226.413 9.376C225.559 9.696 224.663 10.176 223.725 10.816L222.893 9.28C223.981 8.53333 225.047 7.97867 226.093 7.616C227.138 7.232 228.205 7.04 229.293 7.04C231.341 7.04 232.962 7.62667 234.157 8.8C235.351 9.97333 235.949 11.5947 235.949 13.664V21.376C235.949 21.6747 236.013 21.8987 236.141 22.048C236.269 22.176 236.471 22.2507 236.749 22.272V24C236.514 24.0213 236.311 24.0427 236.141 24.064C235.97 24.0853 235.842 24.0853 235.757 24.064C235.223 24.0427 234.818 23.872 234.541 23.552C234.263 23.232 234.114 22.8907 234.093 22.528L234.061 21.312C233.314 22.272 232.343 23.0187 231.149 23.552C229.954 24.064 228.738 24.32 227.501 24.32C226.434 24.32 225.463 24.096 224.589 23.648C223.735 23.1787 223.063 22.56 222.573 21.792C222.103 21.0027 221.868 20.1387 221.868 19.2ZM233.037 20.48C233.271 20.1813 233.453 19.8933 233.581 19.616C233.709 19.3387 233.773 19.0933 233.773 18.88V16.448C233.047 16.1707 232.29 15.9573 231.501 15.808C230.733 15.6587 229.954 15.584 229.165 15.584C227.607 15.584 226.349 15.8933 225.389 16.512C224.429 17.1307 223.949 17.9733 223.949 19.04C223.949 19.6587 224.109 20.2453 224.429 20.8C224.749 21.3333 225.218 21.7813 225.837 22.144C226.455 22.4853 227.181 22.656 228.013 22.656C229.058 22.656 230.029 22.4533 230.925 22.048C231.842 21.6427 232.546 21.12 233.037 20.48ZM240.746 0.639999H242.922V20.224C242.922 21.056 243.071 21.6 243.37 21.856C243.669 22.112 244.031 22.24 244.458 22.24C244.842 22.24 245.226 22.1973 245.61 22.112C245.994 22.0267 246.325 21.9413 246.602 21.856L246.986 23.616C246.581 23.7867 246.079 23.9253 245.482 24.032C244.906 24.1387 244.405 24.192 243.978 24.192C242.997 24.192 242.207 23.904 241.61 23.328C241.034 22.752 240.746 21.9627 240.746 20.96V0.639999ZM256.569 24.32C255.374 24.32 254.265 24.096 253.241 23.648C252.217 23.1787 251.331 22.5493 250.585 21.76C249.838 20.9493 249.251 20.0213 248.825 18.976C248.419 17.9307 248.217 16.8107 248.217 15.616C248.217 14.0587 248.569 12.6293 249.273 11.328C249.998 10.0267 250.99 8.992 252.249 8.224C253.507 7.43467 254.937 7.04 256.537 7.04C258.179 7.04 259.609 7.43467 260.825 8.224C262.062 9.01333 263.033 10.0587 263.737 11.36C264.441 12.64 264.793 14.048 264.793 15.584C264.793 15.7547 264.793 15.9253 264.793 16.096C264.793 16.2453 264.782 16.3627 264.761 16.448H250.489C250.595 17.6427 250.926 18.7093 251.481 19.648C252.057 20.5653 252.793 21.3013 253.689 21.856C254.606 22.3893 255.598 22.656 256.665 22.656C257.753 22.656 258.777 22.3787 259.737 21.824C260.718 21.2693 261.401 20.544 261.785 19.648L263.673 20.16C263.331 20.9493 262.809 21.664 262.105 22.304C261.401 22.944 260.569 23.4453 259.609 23.808C258.67 24.1493 257.657 24.32 256.569 24.32ZM250.425 14.88H262.745C262.659 13.664 262.329 12.5973 261.753 11.68C261.198 10.7627 260.462 10.048 259.545 9.536C258.649 9.00267 257.657 8.736 256.569 8.736C255.481 8.736 254.489 9.00267 253.593 9.536C252.697 10.048 251.961 10.7733 251.385 11.712C250.83 12.6293 250.51 13.6853 250.425 14.88ZM282.166 24H279.99V14.688C279.99 12.7253 279.702 11.296 279.126 10.4C278.55 9.48267 277.643 9.024 276.406 9.024C275.553 9.024 274.71 9.23733 273.878 9.664C273.046 10.0693 272.31 10.6347 271.67 11.36C271.051 12.064 270.603 12.8747 270.326 13.792V24H268.15V7.328H270.134V11.104C270.582 10.2933 271.169 9.58933 271.894 8.992C272.619 8.37333 273.441 7.89333 274.358 7.552C275.275 7.21067 276.225 7.04 277.206 7.04C278.123 7.04 278.902 7.21067 279.542 7.552C280.182 7.89333 280.694 8.384 281.078 9.024C281.462 9.64267 281.739 10.4 281.91 11.296C282.081 12.1707 282.166 13.152 282.166 14.24V24Z" fill="white"/>
<path d="M288.956 24V17.14H293.086V24H288.956Z" fill="#F13024"/>
</svg>
